# AST/ASF file generated using VICON BodyLanguage
# -----------------------------------------------
:version 1.10
:name VICON
:units
  mass 1.0
  length 0.45
  angle deg
:documentation
   .ast/.asf automatically generated from VICON data using
   VICON BodyBuilder and BodyLanguage model FoxedUp or BRILLIANT.MOD
:root
   order TX TY TZ RX RY RZ
   axis XYZ
   position 0 0 0  
   orientation 0 0 0 
:bonedata
  begin
     id 1 
     name lhipjoint
     direction 0.547975 -0.797114 0.253638 
     length 2.36201 
     axis 0 0 0  XYZ
  end
  begin
     id 2 
     name lfemur
     direction 0.34202 -0.939693 0  
     length 7.69075  
     axis 0 0 20  XYZ
    dof rx ry rz
    limits (-160.0 20.0)
           (-70.0 70.0)
           (-60.0 70.0)
  end
  begin
     id 3 
     name ltibia
     direction 0.34202 -0.939693 0   
     length 7.91399   
     axis 0 0 20   XYZ
    dof rx
    limits (-10.0 170.0)
  end
  begin
     id 4 
     name lfoot
     direction 0.0705293 -0.193778 0.978507   
     length 2.13618   
     axis -90 7.62852e-016 20   XYZ
    dof rx rz
    limits (-45.0 90.0)
           (-70.0 20.0)
  end
  begin
     id 5 
     name ltoes
     direction 1.53592e-011 -4.21925e-011 1   
     length 1.07518   
     axis -90 7.62852e-016 20   XYZ
    dof rx
    limits (-90.0 20.0)
  end
  begin
     id 6 
     name rhipjoint
     direction -0.57 -0.782963 0.249136   
     length 2.4047  
     axis 0 0 0  XYZ 
  end
  begin
     id 7 
     name rfemur
     direction -0.34202 -0.939693 0   
     length 7.51486   
     axis 0 0 -20   XYZ
    dof rx ry rz
    limits (-160.0 20.0)
           (-70.0 70.0)
           (-70.0 60.0)
  end
  begin
     id 8 
     name rtibia
     direction -0.34202 -0.939693 0   
     length 8.08317   
     axis 0 0 -20   XYZ
    dof rx
    limits (-10.0 170.0)
 end
 begin
     id 9 
     name rfoot
     direction -0.104954 -0.281256 0.953876   
     length 2.30343  
     axis -90 -7.62852e-016 -20   XYZ
    dof rx rz
    limits (-45.0 90.0)
           (-20.0 70.0)
  end
  begin
     id 10 
     name rtoes
     direction -1.53556e-011 -4.21922e-011 1   
     length 1.14803   
     axis -90 -7.62852e-016 -20   XYZ
    dof rx
    limits (-90.0 20.0)
  end
  begin
     id 11 
     name lowerback
     direction -0.0152855 0.99353 -0.11254   
     length 2.05311   
     axis 0 0 0   XYZ
    dof rx ry rz
    limits (-20.0 45.0)
           (-30.0 30.0)
           (-30.0 30.0)
  end
  begin
     id 12 
     name upperback
     direction -0.00157509 0.999443 -0.033332   
     length 2.06353   
     axis 0 0 0   XYZ
    dof rx ry rz
    limits (-20.0 45.0)
           (-30.0 30.0)
           (-30.0 30.0)
  end
  begin
     id 13 
     name thorax
     direction 0.00577788 0.999804 0.0189484   
     length 2.08472   
     axis 0 0 0   XYZ
    dof rx ry rz
    limits (-20.0 45.0)
           (-30.0 30.0)
           (-30.0 30.0)
  end
  begin
     id 14 
     name lowerneck
     direction -1.09301e-005 0.994719 0.10264   
     length 1.76249   
     axis 0 0 0   XYZ
    dof rx ry rz
    limits (-20.0 45.0)
           (-30.0 30.0)
           (-30.0 30.0)
  end
  begin
     id 15 
     name upperneck
     direction 0.0495018 0.988526 -0.142706   
     length 1.77897   
     axis 0 0 0   XYZ
    dof rx ry rz
    limits (-20.0 45.0)
           (-30.0 30.0)
           (-30.0 30.0)
  end
  begin
     id 16
     name head
     direction 0.0142736 0.998114 -0.0597101  
     length 1.78934  
     axis 0 0 0   XYZ
    dof rx ry rz
    limits (-20.0 45.0)
           (-30.0 30.0)
           (-30.0 30.0)
  end
  begin
     id 17 
     name lclavicle
     direction 0.918111 0.396107 -0.0130883  
     length 3.37276  
     axis 0 0 0   XYZ
    dof ry rz
    limits (-20.0 10.0)
           (0.0 20.0)
  end
  begin
     id 18 
     name lhumerus
     direction 1 -4.48975e-011 -3.26108e-027   
     length 5.34298   
     axis 180 -30 -90   XYZ
    dof rx ry rz
    limits (-60.0 90.0)
           (-90.0 90.0)
           (-90.0 90.0)
  end
  begin
     id 19
     name lradius
     direction 1 -4.48964e-011 -8.84413e-028   
     length 3.67262   
     axis 180 -30 -90   XYZ
    dof rx
    limits (-10.0 170.0)
  end
  begin
     id 20
     name lwrist
     direction 1 -4.48991e-011 -1.24264e-027   
     length 1.83631   
     axis -2.17013e-015 90 90   XYZ
    dof ry
    limits (-180.0 0.0)
 end
  begin
     id 21 
     name lhand
     direction 1 -4.48855e-011 -2.48528e-027   
     length 0.599298   
     axis 1.58582e-015 90 90   XYZ
    dof rx rz
    limits (-90.0 90.0)
           (-45.0 45.0)
  end
  begin
     id 22 
     name lfingers
     direction 1 -4.48811e-011 -4.97056e-027   
     length 0.48317   
     axis 3.17164e-015 90 90   XYZ
    dof rx
    limits (0.0 90.0)
  end
  begin
     id 23
     name lthumb
     direction 0.707107 -6.34882e-011 0.707107   
     length 0.693738   
     axis -90 45 2.85299e-015   XYZ
    dof rx rz
    limits (-45.0 45.0)
           (-45.0 45.0)
  end
  begin
     id 24 
     name rclavicle
     direction -0.920511 0.384752 -0.0680135   
     length 3.43787  
     axis 0 0 0   XYZ 
    dof ry rz
    limits (-10.0 20.0)
           (-20.0 0.0)
  end
  begin
     id 25 
     name rhumerus
     direction -0.999976 -0.00330524 0.00603274  
     length 5.5498   
     axis 180 30 90   XYZ
    dof rx ry rz
    limits (-90.0 60.0)
           (-90.0 90.0)
           (-90.0 90.0)
  end
  begin
     id 26 
     name rradius
     direction -1 -4.48967e-011 8.62438e-027   
     length 3.69401   
     axis 180 30 90   XYZ
    dof rx
    limits (-10.0 170.0)
  end
  begin
     id 27 
     name rwrist
     direction -1 -4.4897e-011 9.54866e-027   
     length 1.84701   
     axis -7.69462e-015 -90 -90   XYZ
    dof ry
    limits (-180.0 0.0)
  end
  begin
     id 28
     name rhand
     direction -1 -4.48982e-011 1.90973e-026   
     length 0.638113   
     axis -1.21857e-014 -90 -90   XYZ
    dof rx rz
    limits (-90.0 90.0)
           (-45.0 45.0)
  end
  begin
     id 29
     name rfingers
     direction -1 -4.48936e-011 3.81946e-026   
     length 0.514463   
     axis -2.43714e-014 -90 -90   XYZ
    dof rx
    limits (0.0 90.0)
  end
  begin
     id 30
     name rthumb
     direction -0.707107 -6.34942e-011 0.707107   
     length 0.738669   
     axis -90 -45 -2.85299e-015   XYZ
    dof rx rz
    limits (-45.0 45.0)
           (-45.0 45.0)
  end
:hierarchy
  begin
    root lhipjoint rhipjoint lowerback
    lhipjoint lfemur
    lfemur ltibia
    ltibia lfoot
    lfoot ltoes
    rhipjoint rfemur
    rfemur rtibia
    rtibia rfoot
    rfoot rtoes
    lowerback upperback
    upperback thorax
    thorax lowerneck lclavicle rclavicle
    lowerneck upperneck
    upperneck head
    lclavicle lhumerus
    lhumerus lradius
    lradius lwrist
    lwrist lhand lthumb
    lhand lfingers
    rclavicle rhumerus
    rhumerus rradius
    rradius rwrist
    rwrist rhand rthumb
    rhand rfingers
  end

#!OML:ASF F:\twosubjects\two\Thursday\Session 1\Rory.ASF
:FULLY-SPECIFIED
:DEGREES
1
root 18.0353 12.8451 9.88742 -55.7266 -81.7947 17.9407
lowerback 21.2818 1.54728 1.09883
upperback 15.2488 0.943294 -0.409959
thorax 4.84915 0.030973 -1.25966
lowerneck 1.65461 10.1381 11.6623
upperneck 9.1185 14.2375 -10.0556
head 4.01055 7.09936 -4.33478
rclavicle 2.49102e-014 3.32964e-014
rhumerus -17.4644 2.87292 -91.4975
rradius 64.0339
rwrist 18.6731
rhand 4.37154 20.7631
rfingers 7.12502
rthumb 29.7704 -6.86554
lclavicle 2.49102e-014 3.32964e-014
lhumerus -17.7618 -26.8841 91.9983
lradius 68.8028
lwrist -16.9845
lhand 0.859792 33.8178
lfingers 7.12502
lthumb 26.4136 61.9976
rfemur -24.8092 6.89247 -0.285557
rtibia 38.5844
rfoot 2.22267 -29.2343
rtoes 48.3577
lfemur -22.157 -4.69852 -8.91754
ltibia 28.533
lfoot 28.7139 5.52694
ltoes 11.4347
2
root 18.0332 12.8429 9.89011 -55.9403 -81.6826 18.2021
lowerback 21.235 1.49661 1.14463
upperback 15.2356 0.88894 -0.556879
thorax 4.86006 0.0166276 -1.43386
lowerneck 1.45536 10.1416 11.5876
upperneck 9.36713 14.2126 -9.79249
head 4.09203 7.08509 -4.22994
rclavicle 1.6465e-014 4.96962e-017
rhumerus -17.4773 2.82148 -91.6471
rradius 64.063
rwrist 18.455
rhand 4.10776 20.9821
rfingers 7.12502
rthumb 29.5186 -6.69128
lclavicle 1.6465e-014 4.96962e-017
lhumerus -17.784 -26.9481 91.8291
lradius 68.9515
lwrist -17.0701
lhand 1.21032 34.0812
lfingers 7.12502
lthumb 26.7491 62.2102
rfemur -24.8356 6.7467 -0.386792
rtibia 38.5468
rfoot 2.63645 -29.0722
rtoes 47.9041
lfemur -22.2252 -4.85683 -9.01678
ltibia 28.544
lfoot 28.854 5.3289
ltoes 10.4885
3
root 18.0375 12.8475 9.88943 -56.1599 -81.5818 18.3865
lowerback 21.2846 1.5044 1.18399
upperback 15.2493 0.904891 -0.611785
thorax 4.8545 0.0304835 -1.51818
lowerneck 1.52623 10.0431 11.4639
upperneck 9.20656 14.0633 -9.63692
head 3.99561 7.01634 -4.18342
rclavicle 8.01972e-015 3.62782e-015
rhumerus -17.5273 2.6554 -91.6733
rradius 64.1247
rwrist 18.5338
rhand 3.76149 21.0524
rfingers 7.12502
rthumb 29.188 -6.67884
lclavicle 8.01972e-015 3.62782e-015
lhumerus -17.7798 -27.0998 91.8437
lradius 69.0977
lwrist -16.9082
lhand 1.58046 34.6733
lfingers 7.12502
lthumb 27.1033 62.7476
rfemur -24.8389 6.96331 -0.610284
rtibia 38.7985
rfoot 1.18701 -29.2394
rtoes 49.0279
lfemur -21.9496 -5.00465 -9.11779
ltibia 28.0592
lfoot 29.0506 5.59398
ltoes 10.8113
4
root 18.0569 12.8667 9.8851 -55.9202 -81.6597 18.1879
lowerback 21.2387 1.5593 1.23578
upperback 15.2466 0.986913 -0.515908
thorax 4.87635 0.0728902 -1.45697
lowerneck 1.16888 9.90542 11.3403
upperneck 9.51824 13.8584 -9.58281
head 4.11372 6.90033 -4.13891
rclavicle 3.91947e-014 5.06901e-015
rhumerus -17.5236 2.53205 -91.5553
rradius 64.1039
rwrist 18.7351
rhand 3.59948 21.1172
rfingers 7.12502
rthumb 29.0332 -6.64088
lclavicle 3.91947e-014 5.06901e-015
lhumerus -17.7642 -27.1503 91.996
lradius 69.0601
lwrist -16.981
lhand 1.55346 34.6891
lfingers 7.12502
lthumb 27.0775 62.7675
rfemur -24.9987 8.05173 -1.00984
rtibia 38.9251
rfoot -1.42655 -29.8088
rtoes 50.7923
lfemur -21.8754 -4.87129 -9.04585
ltibia 27.85
lfoot 29.1292 5.73005
ltoes 11.5466
5
root 18.0783 12.8875 9.88396 -55.7233 -81.705 18.0671
lowerback 21.1647 1.54394 1.20919
upperback 15.2137 0.967092 -0.482361
thorax 4.87243 0.0609014 -1.40171
lowerneck 0.98907 9.8895 11.2636
upperneck 9.72415 13.8274 -9.52702
head 4.19316 6.87729 -4.09947
rclavicle -2.33852e-014 1.47598e-014
rhumerus -17.5614 2.66768 -91.5482
rradius 64.143
rwrist 18.7566
rhand 3.5528 21.0573
rfingers 7.12502
rthumb 28.9887 -6.70842
lclavicle -2.33852e-014 1.47598e-014
lhumerus -17.8165 -26.9768 92.0308
lradius 69.0655
lwrist -17.1711
lhand 1.46269 34.5597
lfingers 7.12502
lthumb 26.9906 62.6515
rfemur -25.2358 9.05927 -1.42241
rtibia 38.9472
rfoot -2.90479 -30.3058
rtoes 51.53
lfemur -22.057 -4.8346 -9.00921
ltibia 28.0856
lfoot 29.0772 5.55585
ltoes 11.2611
